<svg width="349" height="338" viewBox="0 0 349 338" fill="none" xmlns="http://www.w3.org/2000/svg">
<path d="M124 20C124 8.9543 132.954 0 144 0H222C223.105 0 224 0.895431 224 2V98C224 99.1046 223.105 100 222 100H126C124.895 100 124 99.1046 124 98V20Z" fill="#3F51B5"/>
<rect x="124" y="119" width="100" height="100" rx="20" fill="#3F51B5"/>
<path d="M124 240C124 238.895 124.895 238 126 238H222C223.105 238 224 238.895 224 240V318C224 329.046 215.046 338 204 338H126C124.895 338 124 337.105 124 336V240Z" fill="#3F51B5"/>
<path d="M0 258C0 246.954 8.95431 238 20 238H98C99.1046 238 100 238.895 100 240V336C100 337.105 99.1046 338 98 338H20C8.9543 338 0 329.046 0 318V258Z" fill="#0061F2"/>
<path d="M249 0H329C340.046 0 349 8.95431 349 20V100H249V0Z" fill="#0061F2"/>
<path d="M249 121C249 119.895 249.895 119 251 119H347C348.105 119 349 119.895 349 121V199C349 210.046 340.046 219 329 219H251C249.895 219 249 218.105 249 217V121Z" fill="#0061F2"/>
</svg>
